<?xml version="1.0" encoding="UTF-8"?>
<svg width="32" height="32" viewBox="0 0 32 32" fill="none" xmlns="http://www.w3.org/2000/svg">
  <rect width="32" height="32" rx="6" fill="url(#paint0_linear_1_2)" />
  <path d="M10.5 18.5L16 8L13.5 13.5H18L12.5 24L15 18.5H10.5Z" fill="white"/>
  <path d="M21 10L19 8L17 10L15 8L17 10L15 12L17 10L19 12L21 10L19 10L21 8L19 10Z" fill="#FEF08A" stroke="#FEF08A" stroke-width="0.5"/>
  <path d="M24 20L22 18L20 20L18 18L20 20L18 22L20 20L22 22L24 20L22 20L24 18L22 20Z" fill="#FEF08A" stroke="#FEF08A" stroke-width="0.5"/>
  <defs>
    <linearGradient id="paint0_linear_1_2" x1="0" y1="0" x2="32" y2="32" gradientUnits="userSpaceOnUse">
      <stop stop-color="#7C3AED"/>
      <stop offset="1" stop-color="#4F46E5"/>
    </linearGradient>
  </defs>
</svg>
